<?xml version="1.0" encoding="UTF-8"?>
<svg xmlns="http://www.w3.org/2000/svg" version="1.1" viewBox="0 0 45 45">
  <g style="fill:#111111; stroke:#cccccc; stroke-width:1.5; stroke-linecap:round; stroke-linejoin:round;">
    <path d="M 22.5,11.63 L 22.5,6" style="fill:none; stroke:#cccccc;"/>
    <path d="M 20,8 L 25,8" style="fill:none; stroke:#cccccc;"/>
    <path d="M 22.5,25 C 22.5,25 27,17.5 25.5,14.5 C 25.5,14.5 24.5,12 22.5,12 C 20.5,12 19.5,14.5 19.5,14.5 C 18,17.5 22.5,25 22.5,25"/>
    <path d="M 11.5,37 C 17,40.5 27,40.5 33.5,37 L 36,30 C 27.5,35.5 17.5,35.5 9,30 L 11.5,37"/>
    <path d="M 11.5,30 C 17,27 27,27 33.5,30"/>
    <path d="M 11.5,30 C 17,34.5 27,34.5 33.5,30"/>
    <path d="M 9,36 C 9,36 10,37.5 22.5,37.5 C 35,37.5 36,36 36,36 L 36,33.5 C 36,33.5 25.5,36 22.5,36 C 19.5,36 9,33.5 9,33.5 L 9,36"/>
    <path d="M 9,36 L 36,36" style="stroke:#888888;"/>
    <path d="M 9,33.5 L 36,33.5" style="stroke:#888888;"/>
    <line x1="22.5" y1="6" x2="22.5" y2="12" style="stroke:#cccccc;"/>
    <line x1="19.5" y1="8.5" x2="25.5" y2="8.5" style="stroke:#cccccc;"/>
  </g>
</svg>
