<?xml version="1.0" encoding="UTF-8"?>
<svg xmlns="http://www.w3.org/2000/svg" version="1.1" viewBox="0 0 45 45">
  <g style="fill:#111111; stroke:#cccccc; stroke-width:1.5; stroke-linecap:round; stroke-linejoin:round;">
    <path d="M 22,10 C 32.5,11 38.5,18 38,39 L 15,39 C 15,30 25,32.5 23,18"/>
    <path d="M 24,18 C 24.38,20.91 18.45,25.37 16,27 C 13,29 13.18,31.34 11,31 C 9.958,30.06 12.41,27.96 11,28 C 10,28 11.19,29.23 10,30 C 9,30 5.997,29 5,28 C 3.997,27 7.997,26 7,24 C 8,22.38 10.97,23.99 10,22 C 9,20 12,19 12,18 C 11,15 10,14 10,12 C 13,12 13,13 14,14 C 12,16 13,18 15,19 C 17,20 23,18 24,18"/>
    <circle cx="26.5" cy="14" r="2" style="fill:#aaaaaa; stroke:none;"/>
  </g>
</svg>
