<?xml version="1.0" encoding="UTF-8"?>
<svg xmlns="http://www.w3.org/2000/svg" version="1.1" viewBox="0 0 45 45">
  <g style="fill:#111111; stroke:#cccccc; stroke-width:1.5; stroke-linecap:round; stroke-linejoin:round;">
    <circle cx="6" cy="12" r="2.75"/>
    <circle cx="14" cy="9" r="2.75"/>
    <circle cx="22.5" cy="8" r="2.75"/>
    <circle cx="31" cy="9" r="2.75"/>
    <circle cx="39" cy="12" r="2.75"/>
    <path d="M 9,26 C 17.5,24.5 30,24.5 36,26 L 38.5,13.5 L 31,25 L 30.7,10.9 L 22.5,24 L 14.3,10.9 L 14,25 L 6.5,13.5 z"/>
    <path d="M 9,26 C 9,28 10.5,28 11.5,30 C 12.5,31.5 12.5,31 12,33.5 C 10.7,34.2 9,34 9,36 C 17.5,37.5 27.5,37.5 36,36 C 36,34 34.3,34.2 33,33.5 C 32.5,31 32.5,31.5 33.5,30 C 34.5,28 36,28 36,26 C 27.5,24.5 17.5,24.5 9,26 z"/>
    <line x1="9" y1="36" x2="36" y2="36" style="stroke:#888888;"/>
    <line x1="11" y1="33.5" x2="34" y2="33.5" style="stroke:#888888;"/>
  </g>
</svg>
