<?xml version="1.0" encoding="UTF-8"?>
<svg xmlns="http://www.w3.org/2000/svg" version="1.1" viewBox="0 0 45 45">
  <g style="fill:#ffffff; stroke:#1a1a1a; stroke-width:1.5; stroke-linecap:round; stroke-linejoin:round;">
    <path d="M 9,36 C 12.39,35.03 19.11,36.43 22.5,34 C 25.89,36.43 32.61,35.03 36,36 L 36,39 L 9,39 z"/>
    <path d="M 15,32 C 17.5,34.5 27.5,34.5 30,32 L 30,29.5 C 27.5,31.5 17.5,31.5 15,29.5 z"/>
    <path d="M 22.5,15 C 20,18 17,23 15,29.5 L 30,29.5 C 28,23 25,18 22.5,15 z"/>
    <path d="M 20,9 C 20,12 24,14 22.5,15 C 21,14 25,12 25,9 L 20,9 z"/>
    <circle cx="22.5" cy="7.5" r="2.5"/>
    <line x1="17" y1="23" x2="28" y2="23" style="stroke-width:1;"/>
  </g>
</svg>
