<svg xmlns="http://www.w3.org/2000/svg" width="640" height="640" shape-rendering="crispEdges">
  <rect width="640" height="640" fill="#f0d9b5"/>
  <rect x="80"  y="0"   width="80" height="80" fill="#b58863"/>
  <rect x="240" y="0"   width="80" height="80" fill="#b58863"/>
  <rect x="400" y="0"   width="80" height="80" fill="#b58863"/>
  <rect x="560" y="0"   width="80" height="80" fill="#b58863"/>
  <rect x="0"   y="80"  width="80" height="80" fill="#b58863"/>
  <rect x="160" y="80"  width="80" height="80" fill="#b58863"/>
  <rect x="320" y="80"  width="80" height="80" fill="#b58863"/>
  <rect x="480" y="80"  width="80" height="80" fill="#b58863"/>
  <rect x="80"  y="160" width="80" height="80" fill="#b58863"/>
  <rect x="240" y="160" width="80" height="80" fill="#b58863"/>
  <rect x="400" y="160" width="80" height="80" fill="#b58863"/>
  <rect x="560" y="160" width="80" height="80" fill="#b58863"/>
  <rect x="0"   y="240" width="80" height="80" fill="#b58863"/>
  <rect x="160" y="240" width="80" height="80" fill="#b58863"/>
  <rect x="320" y="240" width="80" height="80" fill="#b58863"/>
  <rect x="480" y="240" width="80" height="80" fill="#b58863"/>
  <rect x="80"  y="320" width="80" height="80" fill="#b58863"/>
  <rect x="240" y="320" width="80" height="80" fill="#b58863"/>
  <rect x="400" y="320" width="80" height="80" fill="#b58863"/>
  <rect x="560" y="320" width="80" height="80" fill="#b58863"/>
  <rect x="0"   y="400" width="80" height="80" fill="#b58863"/>
  <rect x="160" y="400" width="80" height="80" fill="#b58863"/>
  <rect x="320" y="400" width="80" height="80" fill="#b58863"/>
  <rect x="480" y="400" width="80" height="80" fill="#b58863"/>
  <rect x="80"  y="480" width="80" height="80" fill="#b58863"/>
  <rect x="240" y="480" width="80" height="80" fill="#b58863"/>
  <rect x="400" y="480" width="80" height="80" fill="#b58863"/>
  <rect x="560" y="480" width="80" height="80" fill="#b58863"/>
  <rect x="0"   y="560" width="80" height="80" fill="#b58863"/>
  <rect x="160" y="560" width="80" height="80" fill="#b58863"/>
  <rect x="320" y="560" width="80" height="80" fill="#b58863"/>
  <rect x="480" y="560" width="80" height="80" fill="#b58863"/>
</svg>
